<?xml version="1.0" encoding="utf-8"?>
<!-- Generator: Adobe Illustrator 27.0.0, SVG Export Plug-In . SVG Version: 6.00 Build 0)  -->
<svg version="1.1" id="Layer_1" xmlns="http://www.w3.org/2000/svg" xmlns:xlink="http://www.w3.org/1999/xlink" x="0px" y="0px"
	 viewBox="0 0 1366 511" style="enable-background:new 0 0 1366 511;" xml:space="preserve">
<style type="text/css">
	.st0{fill:#2C2F73;}
</style>
<g>
	<g>
		<polygon points="299.84,297.61 275.59,297.61 239.15,337.91 239.15,297.61 221.12,297.61 221.12,388.36 239.15,388.36 
			239.15,360.93 253.77,345.77 278.34,388.36 301.66,388.36 266.21,332.95 		"/>
		<path d="M457.98,347.63c0,7.16-0.27,12.28-0.81,15.35c-0.54,3.09-2.14,5.68-4.81,7.81c-2.67,2.11-6.62,3.18-11.88,3.18
			c-5.25,0-9.24-1.12-12.23-3.37c-2.98-2.24-4.87-5.21-5.66-8.91c-0.46-2.3-0.69-7.34-0.69-15.11V297.6h-18.04v48.23
			c0,10.11,0.59,17.76,1.79,22.94c0.82,3.5,2.54,6.83,5.12,10.02c2.6,3.19,6.12,5.78,10.58,7.77c4.46,1.99,11.01,3,19.65,3
			c7.16,0,12.96-0.91,17.4-2.75c4.44-1.82,8-4.29,10.64-7.38c2.66-3.09,4.47-6.86,5.46-11.34s1.48-12.15,1.48-23.01v-47.49h-18.04
			v50.02L457.98,347.63z"/>
		<path d="M338.75,297.61l-35.44,90.76h19.54l7.5-20.57h36.29l7.93,20.57h20.04l-36.43-90.76h-19.42H338.75z M336.01,352.07
			l12.25-33.55l12.49,33.55H336.01z"/>
		<polygon points="550.56,358.22 513.83,297.61 495.26,297.61 495.26,388.36 512.08,388.36 512.08,329.18 548.26,388.36 
			567.39,388.36 567.39,297.61 550.56,297.61 		"/>
		<path d="M125.38,297.61l-35.44,90.76h19.54l7.5-20.57h36.29l7.93,20.57h20.03l-36.43-90.76H125.38z M122.64,352.07l12.25-33.55
			l12.49,33.55H122.64z"/>
		<polygon points="80.53,297.61 59.86,333.52 38.78,297.61 17.56,297.61 50.39,350.17 50.39,388.36 68.42,388.36 68.42,350.29 
			101.37,297.61 		"/>
		<polygon points="1110.36,297.61 1096.4,361 1080.45,297.61 1058.6,297.61 1041.96,359.95 1028.26,297.61 1009.45,297.61 
			1031.17,388.36 1051.09,388.36 1069.15,320.51 1087.27,388.36 1106.76,388.36 1128.86,297.61 		"/>
		<path d="M985.75,298.97c-3.42-0.91-10.74-1.37-21.99-1.37H934.1v90.76h18.04v-33.88h12.51c8.37,0,14.76-0.44,19.17-1.31
			c3.25-0.7,6.44-2.14,9.58-4.33c3.15-2.18,5.73-5.18,7.78-9s3.06-8.54,3.06-14.14c0-7.27-1.77-13.2-5.31-17.79
			S990.99,300.35,985.75,298.97L985.75,298.97z M982.05,332.94c-1.37,1.99-3.26,3.46-5.66,4.4c-2.41,0.94-7.19,1.4-14.33,1.4h-9.92
			v-25.41h8.76c6.53,0,10.88,0.2,13.05,0.61c2.94,0.53,5.37,1.85,7.29,3.97c1.91,2.11,2.88,4.81,2.88,8.07
			C984.1,328.63,983.42,330.95,982.05,332.94L982.05,332.94z"/>
		<path d="M1157.02,297.61l-35.44,90.76h19.54l7.5-20.57h36.29l7.93,20.57h20.03l-36.43-90.76H1157.02z M1154.27,352.07l12.25-33.55
			l12.49,33.55H1154.27L1154.27,352.07z"/>
		<rect x="1312.84" y="297.61" width="18.04" height="90.76"/>
		<polygon points="1277.96,358.22 1241.25,297.61 1222.66,297.61 1222.66,388.36 1239.49,388.36 1239.49,329.18 1275.67,388.36 
			1294.8,388.36 1294.8,297.61 1277.96,297.61 		"/>
		<g>
			<path d="M1162.13,230.79l17.56-48.19h85.01l18.57,48.19h47.61l-85.87-213.92h-45.79l-83.53,213.92H1162.13z M1221.61,66.81
				l29.53,79.35h-58.48L1221.61,66.81z"/>
			<path d="M328.76,227.85c10.5-4.33,18.89-10.14,25.16-17.43c6.27-7.3,10.57-16.23,12.91-26.84s3.5-28.73,3.5-54.41V16.85h-43.21
				v118.29c0,16.92-0.63,29.02-1.89,36.32s-5,13.45-11.22,18.45c-6.22,5.01-15.44,7.52-27.69,7.52c-12.25,0-21.55-2.65-28.49-7.95
				c-6.94-5.3-11.34-12.33-13.19-21.07c-1.07-5.44-1.6-17.36-1.6-35.74V16.85h-43.21v114.06c0,23.92,1.41,42.01,4.23,54.27
				c1.94,8.27,5.98,16.16,12.11,23.7c6.12,7.54,14.46,13.66,25.01,18.38c10.55,4.72,26.04,7.08,46.46,7.08
				c16.92,0,30.63-2.16,41.13-6.49L328.76,227.85z"/>
			<path d="M126.73,223.03c11.03-7.54,18.65-17.53,22.85-29.97c3.13-9.53,4.69-23.14,4.69-40.84V16.85h-43.21v138.13
				c0,17.31-2,28.71-6,34.2c-4.01,5.49-10.84,8.24-20.5,8.24s-16.7-3.84-21.39-11.52c-3.13-5.05-4.93-13.71-5.42-25.97l-40.87,4.67
				c0.1,22.85,5.86,40.19,17.29,52s27.73,17.72,48.92,17.72c18.07,0,32.61-3.77,43.65-11.3L126.73,223.03z"/>
			<polygon points="455.58,62.39 497.46,230.79 540.86,230.79 582.88,62.39 582.88,230.79 622.59,230.79 622.59,16.85 558.48,16.85 
				520.51,162.78 482.1,16.85 415.88,16.85 415.88,230.79 455.58,230.79 			"/>
			<polygon points="1022,230.79 1065.21,230.79 1065.21,141.04 1144.16,16.85 1094.22,16.85 1044.7,101.49 994.17,16.85 
				943.35,16.85 1022,140.75 			"/>
			<rect x="880.68" y="16.85" width="43.21" height="213.92"/>
			<path d="M819.9,210.41c6.27-7.3,10.57-16.23,12.91-26.84s3.5-28.73,3.5-54.41V16.85H793.1v118.29c0,16.92-0.63,29.02-1.89,36.32
				c-1.26,7.3-5,13.45-11.22,18.45c-6.22,5.01-15.44,7.52-27.69,7.52c-12.25,0-21.55-2.65-28.49-7.95s-11.34-12.33-13.19-21.07
				c-1.07-5.44-1.6-17.36-1.6-35.74V16.85H665.8v114.06c0,23.92,1.41,42.01,4.23,54.27c1.94,8.27,5.98,16.16,12.11,23.7
				c6.12,7.54,14.46,13.66,25.01,18.38c10.55,4.72,26.04,7.08,46.46,7.08c16.92,0,30.62-2.16,41.13-6.49s18.89-10.14,25.16-17.43
				L819.9,210.41z"/>
		</g>
		<rect x="663.58" y="297.61" width="18.04" height="90.76"/>
		<polygon points="580.62,313.33 607.07,313.33 607.07,388.36 625.1,388.36 625.1,313.33 652.76,313.33 652.76,297.61 
			580.62,297.61 		"/>
		<polygon points="798.24,311.76 798.24,297.61 732.11,297.61 732.11,313.33 774.47,313.33 727.3,371.66 727.3,388.36 
			800.64,388.36 800.64,372.63 748.75,372.63 		"/>
		<path d="M838.11,297.61l-35.44,90.76h19.54l7.5-20.57H866l7.93,20.57h20.04l-36.43-90.76h-19.42H838.11z M835.37,352.07
			l12.25-33.55l12.49,33.55H835.37L835.37,352.07z"/>
	</g>
	<path class="st0" d="M48.94,450.48H35.42v-4.35c0-2.03-0.17-3.32-0.52-3.88c-0.35-0.55-0.92-0.83-1.73-0.83
		c-0.88,0-1.54,0.38-1.99,1.13s-0.68,1.89-0.68,3.41c0,1.96,0.25,3.43,0.76,4.42c0.49,0.99,1.86,2.19,4.11,3.59
		c6.48,4.03,10.56,7.34,12.24,9.92c1.68,2.59,2.53,6.75,2.53,12.5c0,4.18-0.46,7.26-1.4,9.24c-0.94,1.98-2.74,3.64-5.41,4.98
		c-2.67,1.34-5.78,2.01-9.33,2.01c-3.9,0-7.22-0.77-9.98-2.32c-2.76-1.55-4.56-3.51-5.41-5.91c-0.85-2.39-1.28-5.78-1.28-10.18
		v-3.84h13.52v7.14c0,2.2,0.19,3.61,0.57,4.24c0.38,0.63,1.05,0.94,2.02,0.94s1.69-0.4,2.16-1.19c0.47-0.8,0.71-1.98,0.71-3.55
		c0-3.46-0.45-5.71-1.35-6.78c-0.92-1.06-3.19-2.84-6.81-5.33c-3.62-2.51-6.02-4.34-7.19-5.47c-1.17-1.13-2.15-2.7-2.92-4.71
		c-0.77-2-1.16-4.57-1.16-7.68c0-4.49,0.55-7.78,1.64-9.86c1.1-2.08,2.87-3.7,5.3-4.87c2.45-1.17,5.39-1.75,8.85-1.75
		c3.78,0,7,0.64,9.67,1.92c2.66,1.28,4.43,2.9,5.29,4.84c0.86,1.95,1.3,5.25,1.3,9.91v2.32L48.94,450.48z M85.93,468.2H67.85v10.4
		c0,2.17,0.15,3.57,0.45,4.2c0.3,0.63,0.88,0.94,1.73,0.94c1.06,0,1.77-0.42,2.13-1.25c0.35-0.83,0.54-2.45,0.54-4.83v-6.34h13.24
		v3.55c0,2.97-0.18,5.25-0.54,6.84c-0.36,1.59-1.19,3.3-2.5,5.11c-1.31,1.81-2.98,3.17-5,4.07c-2.02,0.91-4.55,1.36-7.59,1.36
		s-5.55-0.45-7.82-1.34c-2.26-0.89-4.02-2.12-5.28-3.68s-2.13-3.27-2.61-5.14c-0.49-1.87-0.73-4.6-0.73-8.17v-14.02
		c0-4.2,0.55-7.51,1.63-9.95c1.08-2.43,2.86-4.29,5.33-5.58c2.47-1.29,5.3-1.94,8.5-1.94c3.92,0,7.15,0.78,9.7,2.34
		c2.55,1.56,4.33,3.62,5.36,6.2c1.02,2.57,1.54,6.19,1.54,10.85V468.2L85.93,468.2z M71.92,460.38v-3.51c0-2.49-0.13-4.1-0.38-4.82
		c-0.25-0.72-0.77-1.09-1.55-1.09c-0.97,0-1.57,0.31-1.8,0.92c-0.23,0.62-0.35,2.28-0.35,4.98v3.51L71.92,460.38L71.92,460.38z
		 M102.98,461.93H89.87v-3.23c0-3.72,0.41-6.59,1.23-8.61c0.82-2.02,2.46-3.8,4.93-5.34c2.47-1.55,5.67-2.32,9.61-2.32
		c4.72,0,8.29,0.88,10.68,2.62c2.39,1.75,3.84,3.9,4.32,6.45c0.49,2.55,0.73,7.79,0.73,15.74v24.13h-13.59v-4.29
		c-0.85,1.72-1.95,3.01-3.3,3.87c-1.35,0.86-2.95,1.29-4.83,1.29c-2.45,0-4.69-0.72-6.73-2.16s-3.06-4.58-3.06-9.44v-3.95
		c0-3.6,0.55-6.05,1.63-7.35c1.08-1.3,3.76-2.83,8.05-4.57c4.59-1.89,7.04-3.15,7.37-3.8s0.49-1.98,0.49-3.99
		c0-2.51-0.18-4.15-0.54-4.91c-0.35-0.76-0.95-1.14-1.78-1.14c-0.94,0-1.53,0.32-1.76,0.96c-0.23,0.64-0.35,2.3-0.35,4.98v5.04
		L102.98,461.93z M107.4,468.53c-2.23,1.72-3.53,3.15-3.89,4.31c-0.36,1.16-0.54,2.83-0.54,5c0,2.49,0.15,4.1,0.46,4.82
		c0.31,0.72,0.93,1.09,1.85,1.09c0.92,0,1.44-0.28,1.71-0.85c0.27-0.57,0.4-2.06,0.4-4.47L107.4,468.53L107.4,468.53z M155.76,472.4
		H137.4v-10.11h18.36V472.4z M186.96,432.73v46.92h8.85v11.74H172.4v-58.66L186.96,432.73L186.96,432.73z M211.38,461.93h-13.11
		v-3.23c0-3.72,0.41-6.59,1.23-8.61c0.82-2.02,2.46-3.8,4.93-5.34c2.47-1.55,5.67-2.32,9.61-2.32c4.72,0,8.29,0.88,10.68,2.62
		c2.39,1.75,3.84,3.9,4.32,6.45c0.49,2.55,0.73,7.79,0.73,15.74v24.13H216.2v-4.29c-0.85,1.72-1.95,3.01-3.3,3.87
		c-1.35,0.86-2.95,1.29-4.83,1.29c-2.45,0-4.69-0.72-6.73-2.16s-3.06-4.58-3.06-9.44v-3.95c0-3.6,0.54-6.05,1.63-7.35
		c1.08-1.3,3.77-2.83,8.05-4.57c4.59-1.89,7.04-3.15,7.37-3.8c0.32-0.65,0.49-1.98,0.49-3.99c0-2.51-0.18-4.15-0.54-4.91
		c-0.36-0.76-0.95-1.14-1.78-1.14c-0.94,0-1.53,0.32-1.76,0.96c-0.23,0.64-0.35,2.3-0.35,4.98v5.04L211.38,461.93z M215.81,468.53
		c-2.23,1.72-3.53,3.15-3.89,4.31c-0.36,1.16-0.54,2.83-0.54,5c0,2.49,0.15,4.1,0.46,4.82c0.31,0.72,0.93,1.09,1.85,1.09
		c0.92,0,1.44-0.28,1.71-0.85c0.27-0.57,0.4-2.06,0.4-4.47L215.81,468.53L215.81,468.53z M248.81,443.31l-0.24,4.43
		c1.02-1.77,2.25-3.09,3.72-3.97c1.47-0.88,3.15-1.33,5.06-1.33c2.39,0,4.35,0.59,5.88,1.78c1.52,1.19,2.5,2.67,2.94,4.47
		c0.43,1.8,0.66,4.8,0.66,9v33.7h-13.97v-33.29c0-3.31-0.1-5.33-0.31-6.05c-0.21-0.72-0.78-1.09-1.73-1.09
		c-0.99,0-1.61,0.42-1.86,1.25s-0.38,3.06-0.38,6.68v32.5h-13.97v-48.08H248.81L248.81,443.31z M303.4,432.73v58.66h-13.97v-3.48
		c-1.33,1.45-2.74,2.54-4.21,3.27c-1.47,0.72-3.02,1.09-4.63,1.09c-2.17,0-4.04-0.6-5.64-1.79c-1.59-1.19-2.61-2.58-3.06-4.15
		s-0.68-4.13-0.68-7.68v-22.5c0-3.7,0.22-6.31,0.68-7.86c0.45-1.55,1.48-2.9,3.09-4.07c1.61-1.17,3.54-1.75,5.78-1.75
		c1.73,0,3.32,0.32,4.75,0.98c1.44,0.66,2.75,1.64,3.93,2.94v-13.63h13.97L303.4,432.73z M289.43,455.41c0-1.76-0.15-2.95-0.43-3.55
		s-0.86-0.91-1.71-0.91c-0.85,0-1.39,0.27-1.68,0.82c-0.29,0.55-0.43,1.75-0.43,3.64v23.55c0,1.96,0.14,3.24,0.41,3.86
		c0.28,0.62,0.81,0.92,1.59,0.92c0.9,0,1.5-0.35,1.8-1.03c0.3-0.69,0.45-2.37,0.45-5.05L289.43,455.41L289.43,455.41z
		 M352.47,460.19v11.77c0,4.32-0.21,7.49-0.62,9.51c-0.41,2.02-1.3,3.9-2.66,5.65c-1.36,1.75-3.11,3.04-5.24,3.88
		c-2.13,0.83-4.58,1.25-7.35,1.25c-3.09,0-5.7-0.35-7.85-1.07c-2.14-0.71-3.81-1.79-5-3.23s-2.03-3.18-2.54-5.22
		c-0.51-2.04-0.76-5.11-0.76-9.19v-12.32c0-4.47,0.46-7.96,1.39-10.47c0.92-2.51,2.58-4.53,4.98-6.05c2.39-1.53,5.46-2.28,9.19-2.28
		c3.13,0,5.83,0.49,8.07,1.47c2.25,0.98,3.98,2.25,5.2,3.82c1.22,1.57,2.06,3.19,2.5,4.86c0.45,1.67,0.68,4.2,0.68,7.61
		 M338.52,456.57c0-2.46-0.13-4.02-0.38-4.66c-0.25-0.64-0.8-0.96-1.62-0.96c-0.83,0-1.39,0.32-1.66,0.96
		c-0.28,0.64-0.41,2.2-0.41,4.66v21.7c0,2.27,0.14,3.75,0.41,4.44c0.28,0.69,0.82,1.03,1.63,1.03c0.81,0,1.38-0.32,1.64-0.94
		c0.27-0.63,0.4-1.98,0.4-4.06L338.52,456.57L338.52,456.57z M374.9,432.73v7.43c-2.88,0-4.58,0.14-5.1,0.42
		c-0.52,0.28-0.78,1.07-0.78,2.37v1.53h5.88v7.61h-3.32v39.31h-13.97v-39.31h-2.87v-7.61h2.87c0-3.16,0.1-5.28,0.31-6.34
		c0.21-1.06,0.72-2.01,1.54-2.84c0.82-0.83,1.97-1.47,3.44-1.9c1.47-0.43,3.77-0.66,6.88-0.66L374.9,432.73L374.9,432.73z
		 M423.73,467.07c0,5.89-0.13,10.06-0.4,12.52s-1.1,4.69-2.49,6.72c-1.39,2.03-3.28,3.59-5.65,4.67c-2.37,1.09-5.14,1.63-8.3,1.63
		s-5.69-0.52-8.07-1.54c-2.39-1.02-4.3-2.56-5.75-4.62c-1.45-2.06-2.31-4.29-2.59-6.7c-0.27-2.42-0.41-6.65-0.41-12.68v-10.03
		c0-5.89,0.13-10.06,0.4-12.52c0.27-2.45,1.1-4.69,2.49-6.72c1.39-2.03,3.28-3.59,5.65-4.67s5.14-1.63,8.3-1.63
		c3,0,5.69,0.52,8.07,1.54c2.39,1.02,4.3,2.56,5.75,4.62c1.45,2.06,2.31,4.29,2.59,6.7c0.28,2.42,0.41,6.65,0.41,12.68V467.07z
		 M409.17,447.8c0-2.73-0.15-4.47-0.43-5.24c-0.29-0.76-0.88-1.14-1.78-1.14c-0.76,0-1.34,0.31-1.75,0.92
		c-0.41,0.62-0.6,2.43-0.6,5.45v27.39c0,3.4,0.13,5.51,0.4,6.31c0.27,0.8,0.88,1.19,1.85,1.19s1.63-0.46,1.9-1.38
		c0.28-0.91,0.41-3.1,0.41-6.56L409.17,447.8L409.17,447.8z M442.95,443.31l-0.24,4.25c1.25-1.72,2.62-3,4.11-3.85
		c1.5-0.85,3.13-1.27,4.91-1.27c2.17,0,4.04,0.61,5.62,1.83c1.58,1.22,2.56,2.62,2.95,4.22c0.39,1.59,0.59,4.3,0.59,8.12v20.25
		c0,4.37-0.25,7.49-0.74,9.33c-0.49,1.85-1.51,3.32-3.04,4.42s-3.38,1.65-5.55,1.65c-1.73,0-3.33-0.42-4.8-1.27
		c-1.47-0.85-2.82-2.11-4.04-3.77v11.02h-13.97v-54.93L442.95,443.31L442.95,443.31z M446.93,457.29c0-2.97-0.1-4.77-0.31-5.4
		c-0.21-0.63-0.78-0.94-1.73-0.94c-0.95,0-1.52,0.36-1.78,1.09c-0.27,0.72-0.4,2.48-0.4,5.25v19.93c0,2.9,0.14,4.71,0.41,5.44
		c0.28,0.72,0.88,1.09,1.8,1.09s1.46-0.33,1.68-0.99c0.22-0.66,0.33-2.28,0.33-4.83V457.3L446.93,457.29z M479.69,443.31l-0.24,4.25
		c1.25-1.72,2.62-3,4.11-3.85s3.13-1.27,4.91-1.27c2.17,0,4.04,0.61,5.62,1.83c1.58,1.22,2.56,2.62,2.95,4.22
		c0.39,1.59,0.59,4.3,0.59,8.12v20.25c0,4.37-0.25,7.49-0.74,9.33c-0.49,1.85-1.51,3.32-3.04,4.42s-3.38,1.65-5.55,1.65
		c-1.73,0-3.33-0.42-4.8-1.27c-1.47-0.85-2.82-2.11-4.04-3.77v11.02h-13.97v-54.93L479.69,443.31L479.69,443.31z M483.67,457.29
		c0-2.97-0.1-4.77-0.31-5.4c-0.21-0.63-0.78-0.94-1.73-0.94s-1.52,0.36-1.78,1.09c-0.27,0.72-0.4,2.48-0.4,5.25v19.93
		c0,2.9,0.14,4.71,0.41,5.44c0.28,0.72,0.88,1.09,1.8,1.09s1.46-0.33,1.68-0.99c0.22-0.66,0.33-2.28,0.33-4.83V457.3L483.67,457.29z
		 M533.84,460.19v11.77c0,4.32-0.21,7.49-0.62,9.51c-0.41,2.02-1.3,3.9-2.66,5.65c-1.36,1.75-3.11,3.04-5.24,3.88
		s-4.58,1.25-7.35,1.25c-3.09,0-5.7-0.35-7.85-1.07c-2.14-0.71-3.81-1.79-5-3.23c-1.19-1.44-2.03-3.18-2.54-5.22
		s-0.76-5.11-0.76-9.19v-12.32c0-4.47,0.46-7.96,1.39-10.47c0.92-2.51,2.58-4.53,4.98-6.05c2.39-1.53,5.46-2.28,9.19-2.28
		c3.13,0,5.83,0.49,8.07,1.47c2.25,0.98,3.98,2.25,5.2,3.82s2.06,3.19,2.5,4.86C533.63,454.24,533.85,456.77,533.84,460.19
		 M519.88,456.56c0-2.46-0.13-4.02-0.38-4.66c-0.25-0.64-0.8-0.96-1.63-0.96s-1.39,0.32-1.66,0.96c-0.28,0.64-0.41,2.2-0.41,4.66
		v21.7c0,2.27,0.14,3.75,0.41,4.44c0.28,0.69,0.82,1.03,1.63,1.03s1.38-0.32,1.64-0.94c0.27-0.63,0.4-1.98,0.4-4.06L519.88,456.56
		L519.88,456.56z M552.42,443.3l-0.55,6.32c2.03-4.53,4.97-6.93,8.82-7.19v16.92c-2.56,0-4.44,0.36-5.64,1.09
		c-1.2,0.72-1.94,1.73-2.21,3.03c-0.27,1.29-0.41,4.27-0.41,8.93v18.99h-13.97v-48.08L552.42,443.3L552.42,443.3z M579.8,436.89
		v7.57h3.77v7.61h-3.77v25.73c0,3.16,0.15,4.93,0.46,5.29c0.31,0.36,1.61,0.55,3.89,0.55v7.75h-5.64c-3.18,0-5.45-0.14-6.81-0.42
		c-1.36-0.28-2.56-0.92-3.6-1.92s-1.68-2.15-1.94-3.44c-0.25-1.29-0.38-4.33-0.38-9.11v-24.42h-3.01v-7.61h3.01v-7.57L579.8,436.89
		L579.8,436.89z M618.62,443.3v48.08h-14.21l0.24-3.99c-0.97,1.62-2.16,2.84-3.58,3.65c-1.41,0.81-3.05,1.22-4.89,1.22
		c-2.1,0-3.84-0.38-5.22-1.16c-1.39-0.77-2.4-1.8-3.06-3.08s-1.07-2.62-1.23-4c-0.16-1.39-0.24-4.15-0.24-8.28V443.3h13.97v32.72
		c0,3.74,0.11,5.97,0.33,6.67c0.22,0.7,0.81,1.05,1.78,1.05c1.04,0,1.65-0.36,1.85-1.09c0.2-0.72,0.29-3.06,0.29-6.99V443.3
		L618.62,443.3L618.62,443.3z M637.85,443.3l-0.24,4.43c1.02-1.77,2.25-3.09,3.71-3.97c1.47-0.88,3.15-1.33,5.07-1.33
		c2.39,0,4.35,0.59,5.88,1.78c1.52,1.19,2.5,2.67,2.94,4.47c0.43,1.8,0.66,4.8,0.66,9v33.7h-13.97v-33.29c0-3.31-0.1-5.33-0.31-6.05
		c-0.21-0.72-0.78-1.09-1.73-1.09c-0.99,0-1.61,0.42-1.86,1.25c-0.25,0.83-0.38,3.06-0.38,6.68v32.5h-13.97V443.3L637.85,443.3
		L637.85,443.3z M675.05,440.37h-14.38v-7.65h14.38V440.37z M675.05,491.38h-14.38V443.3h14.38V491.38z M694.8,436.89v7.57h3.77
		v7.61h-3.77v25.73c0,3.16,0.15,4.93,0.46,5.29c0.31,0.36,1.61,0.55,3.89,0.55v7.75h-5.64c-3.18,0-5.45-0.14-6.81-0.42
		c-1.36-0.28-2.56-0.92-3.6-1.92s-1.68-2.15-1.94-3.44c-0.25-1.29-0.38-4.33-0.38-9.11v-24.42h-3.01v-7.61h3.01v-7.57L694.8,436.89
		L694.8,436.89z M716.03,440.37h-14.38v-7.65h14.38V440.37z M716.03,491.38h-14.38V443.3h14.38V491.38z M752.67,468.19h-18.08v10.4
		c0,2.17,0.15,3.57,0.45,4.2c0.3,0.63,0.88,0.94,1.73,0.94c1.06,0,1.77-0.42,2.13-1.25c0.35-0.83,0.54-2.45,0.54-4.83v-6.34h13.24
		v3.55c0,2.97-0.18,5.25-0.54,6.84c-0.36,1.59-1.19,3.3-2.5,5.11c-1.31,1.81-2.98,3.17-5,4.07c-2.02,0.91-4.55,1.36-7.59,1.36
		c-3.04,0-5.55-0.45-7.82-1.34c-2.26-0.89-4.02-2.12-5.28-3.68c-1.26-1.55-2.13-3.27-2.61-5.14c-0.49-1.87-0.73-4.6-0.73-8.17
		v-14.02c0-4.2,0.54-7.51,1.63-9.95c1.08-2.43,2.86-4.29,5.33-5.58c2.47-1.29,5.3-1.94,8.5-1.94c3.92,0,7.15,0.78,9.7,2.34
		c2.55,1.56,4.33,3.62,5.36,6.2c1.02,2.57,1.54,6.19,1.54,10.85L752.67,468.19L752.67,468.19z M738.66,460.37v-3.51
		c0-2.49-0.13-4.1-0.38-4.82c-0.25-0.72-0.77-1.09-1.55-1.09c-0.97,0-1.57,0.31-1.8,0.92c-0.23,0.62-0.35,2.28-0.35,4.98v3.51
		L738.66,460.37L738.66,460.37z M785.75,458.67h-12.38v-2.61c0-2.22-0.12-3.62-0.36-4.22c-0.24-0.59-0.85-0.88-1.81-0.88
		c-0.78,0-1.37,0.27-1.76,0.82c-0.39,0.55-0.59,1.36-0.59,2.45c0,1.47,0.1,2.56,0.29,3.24c0.2,0.69,0.78,1.44,1.76,2.26
		c0.98,0.82,2.99,2.02,6.03,3.59c4.06,2.08,6.72,4.04,7.99,5.87c1.27,1.83,1.9,4.5,1.9,8.01c0,3.91-0.49,6.87-1.45,8.86
		c-0.97,1.99-2.59,3.53-4.86,4.6s-5.01,1.61-8.21,1.61c-3.55,0-6.59-0.58-9.11-1.74s-4.26-2.73-5.2-4.71
		c-0.94-1.98-1.41-4.97-1.41-8.99v-2.32h12.38v3.04c0,2.59,0.15,4.27,0.46,5.04c0.31,0.77,0.93,1.16,1.85,1.16
		c0.99,0,1.68-0.26,2.08-0.78c0.39-0.52,0.59-1.61,0.59-3.28c0-2.29-0.25-3.74-0.76-4.31c-0.53-0.58-3.24-2.29-8.13-5.14
		c-4.1-2.42-6.6-4.6-7.5-6.58c-0.9-1.97-1.35-4.3-1.35-7.01c0-3.84,0.49-6.67,1.45-8.49c0.97-1.83,2.61-3.23,4.93-4.22
		c2.31-0.99,5.01-1.49,8.07-1.49c3.06,0,5.63,0.41,7.77,1.22c2.13,0.81,3.77,1.88,4.91,3.2c1.14,1.33,1.83,2.56,2.08,3.7
		c0.24,1.13,0.36,2.91,0.36,5.33v2.79L785.75,458.67z M812.34,491.39H801.8v-11.96h10.54V491.39z M859.83,450.48h-13.52v-4.35
		c0-2.03-0.17-3.32-0.52-3.88s-0.92-0.83-1.73-0.83c-0.88,0-1.54,0.38-1.99,1.13s-0.68,1.89-0.68,3.41c0,1.96,0.25,3.43,0.76,4.42
		c0.48,0.99,1.86,2.19,4.11,3.59c6.48,4.03,10.56,7.34,12.24,9.92c1.68,2.59,2.53,6.75,2.53,12.5c0,4.18-0.46,7.26-1.4,9.24
		c-0.94,1.98-2.74,3.64-5.41,4.98c-2.67,1.34-5.78,2.01-9.33,2.01c-3.9,0-7.22-0.77-9.98-2.32c-2.76-1.55-4.56-3.51-5.41-5.91
		c-0.85-2.39-1.28-5.78-1.28-10.18v-3.84h13.52v7.14c0,2.2,0.19,3.61,0.57,4.24c0.38,0.63,1.05,0.94,2.03,0.94s1.69-0.4,2.16-1.19
		c0.47-0.8,0.71-1.98,0.71-3.55c0-3.46-0.45-5.71-1.35-6.78c-0.92-1.06-3.19-2.84-6.81-5.33c-3.62-2.51-6.02-4.34-7.19-5.47
		s-2.15-2.7-2.92-4.71c-0.77-2-1.16-4.57-1.16-7.68c0-4.49,0.55-7.78,1.64-9.86c1.1-2.08,2.87-3.7,5.3-4.87
		c2.45-1.17,5.39-1.75,8.85-1.75c3.78,0,7,0.64,9.67,1.92c2.66,1.28,4.43,2.9,5.29,4.84c0.86,1.95,1.3,5.25,1.3,9.91v2.32
		L859.83,450.48z M879.17,432.73v13.19c1.2-1.16,2.5-2.03,3.89-2.62c1.39-0.58,2.89-0.87,4.48-0.87c2.45,0,4.52,0.65,6.24,1.96
		c1.72,1.3,2.76,2.81,3.15,4.51s0.57,4.81,0.57,9.33v33.15h-13.97v-33.84c0-2.8-0.13-4.6-0.4-5.4c-0.27-0.8-0.86-1.19-1.78-1.19
		c-0.85,0-1.43,0.41-1.73,1.23c-0.3,0.83-0.45,2.45-0.45,4.89v34.31h-13.97v-58.66L879.17,432.73L879.17,432.73z M914.78,461.93
		h-13.11v-3.23c0-3.72,0.41-6.59,1.23-8.61c0.82-2.02,2.46-3.8,4.93-5.34c2.47-1.55,5.67-2.32,9.61-2.32
		c4.72,0,8.29,0.88,10.68,2.62c2.39,1.75,3.84,3.9,4.32,6.45c0.49,2.55,0.73,7.79,0.73,15.74v24.13h-13.59v-4.29
		c-0.85,1.72-1.95,3.01-3.3,3.87s-2.95,1.29-4.83,1.29c-2.45,0-4.69-0.72-6.73-2.16s-3.06-4.58-3.06-9.44v-3.95
		c0-3.6,0.54-6.05,1.63-7.35c1.08-1.3,3.76-2.83,8.05-4.57c4.59-1.89,7.04-3.15,7.37-3.8s0.49-1.98,0.49-3.99
		c0-2.51-0.18-4.15-0.54-4.91c-0.35-0.76-0.95-1.14-1.78-1.14c-0.94,0-1.53,0.32-1.76,0.96c-0.23,0.64-0.35,2.3-0.35,4.98v5.04
		L914.78,461.93z M919.2,468.53c-2.24,1.72-3.53,3.15-3.89,4.31c-0.36,1.16-0.54,2.83-0.54,5c0,2.49,0.15,4.1,0.46,4.82
		s0.93,1.09,1.85,1.09c0.92,0,1.44-0.28,1.71-0.85c0.27-0.57,0.4-2.06,0.4-4.47L919.2,468.53L919.2,468.53z M951.94,443.31
		l-0.55,6.32c2.03-4.53,4.97-6.93,8.82-7.19v16.92c-2.56,0-4.44,0.36-5.64,1.09c-1.2,0.72-1.94,1.73-2.21,3.03
		c-0.28,1.29-0.41,4.27-0.41,8.93v18.99h-13.97v-48.08L951.94,443.31L951.94,443.31z M994.95,468.2h-18.08v10.4
		c0,2.17,0.15,3.57,0.45,4.2c0.3,0.63,0.88,0.94,1.73,0.94c1.06,0,1.77-0.42,2.13-1.25c0.35-0.83,0.54-2.45,0.54-4.83v-6.34h13.24
		v3.55c0,2.97-0.18,5.25-0.54,6.84c-0.36,1.59-1.19,3.3-2.5,5.11c-1.31,1.81-2.98,3.17-5,4.07c-2.02,0.91-4.55,1.36-7.59,1.36
		s-5.56-0.45-7.82-1.34s-4.02-2.12-5.28-3.68c-1.26-1.55-2.13-3.27-2.61-5.14c-0.49-1.87-0.73-4.6-0.73-8.17v-14.02
		c0-4.2,0.54-7.51,1.63-9.95c1.08-2.43,2.86-4.29,5.33-5.58c2.47-1.29,5.3-1.94,8.5-1.94c3.92,0,7.15,0.78,9.7,2.34
		c2.55,1.56,4.33,3.62,5.36,6.2c1.02,2.57,1.54,6.19,1.54,10.85L994.95,468.2L994.95,468.2z M980.94,460.38v-3.51
		c0-2.49-0.13-4.1-0.38-4.82c-0.25-0.72-0.77-1.09-1.55-1.09c-0.97,0-1.57,0.31-1.8,0.92c-0.23,0.62-0.35,2.28-0.35,4.98v3.51
		L980.94,460.38L980.94,460.38z M1031.29,432.73v58.66h-13.97v-3.48c-1.33,1.45-2.74,2.54-4.21,3.27c-1.47,0.72-3.02,1.09-4.63,1.09
		c-2.17,0-4.04-0.6-5.64-1.79s-2.61-2.58-3.06-4.15c-0.45-1.57-0.68-4.13-0.68-7.68v-22.5c0-3.7,0.22-6.31,0.68-7.86
		c0.45-1.55,1.48-2.9,3.09-4.07c1.61-1.17,3.54-1.75,5.78-1.75c1.73,0,3.32,0.32,4.75,0.98s2.75,1.64,3.93,2.94v-13.63h13.97
		L1031.29,432.73z M1017.32,455.42c0-1.76-0.15-2.95-0.43-3.55c-0.29-0.6-0.86-0.91-1.71-0.91c-0.85,0-1.39,0.27-1.68,0.82
		s-0.43,1.75-0.43,3.64v23.55c0,1.96,0.14,3.24,0.41,3.86c0.28,0.62,0.8,0.92,1.59,0.92c0.9,0,1.5-0.35,1.8-1.03
		c0.3-0.69,0.45-2.37,0.45-5.05L1017.32,455.42L1017.32,455.42z M1049.18,432.73h14.66c3.96,0,7.01,0.32,9.14,0.98
		c2.13,0.66,3.74,1.59,4.8,2.83c1.07,1.23,1.8,2.73,2.18,4.47c0.38,1.75,0.57,4.46,0.57,8.13v5.11c0,3.74-0.37,6.48-1.11,8.19
		c-0.74,1.72-2.09,3.04-4.06,3.95c-1.97,0.92-4.55,1.38-7.73,1.38h-3.9v23.62h-14.56V432.73L1049.18,432.73z M1063.74,442.77v14.93
		c0.41,0.02,0.77,0.04,1.07,0.04c1.33,0,2.26-0.35,2.78-1.03c0.52-0.69,0.78-2.12,0.78-4.3v-4.82c0-2-0.3-3.31-0.9-3.91
		C1066.88,443.07,1065.63,442.77,1063.74,442.77 M1098.28,443.31l-0.55,6.32c2.03-4.53,4.97-6.93,8.82-7.19v16.92
		c-2.56,0-4.44,0.36-5.64,1.09c-1.2,0.72-1.94,1.73-2.21,3.03c-0.27,1.29-0.41,4.27-0.41,8.93v18.99h-13.97v-48.08L1098.28,443.31
		L1098.28,443.31z M1141.26,460.2v11.77c0,4.32-0.21,7.49-0.63,9.51c-0.41,2.02-1.3,3.9-2.66,5.65c-1.36,1.75-3.11,3.04-5.24,3.88
		c-2.13,0.83-4.58,1.25-7.35,1.25c-3.09,0-5.7-0.35-7.85-1.07c-2.14-0.71-3.81-1.79-5-3.23s-2.03-3.18-2.54-5.22
		s-0.76-5.11-0.76-9.19v-12.32c0-4.47,0.46-7.96,1.39-10.47c0.92-2.51,2.58-4.53,4.98-6.05c2.39-1.53,5.46-2.28,9.19-2.28
		c3.13,0,5.83,0.49,8.07,1.47c2.25,0.98,3.98,2.25,5.2,3.82c1.22,1.57,2.06,3.19,2.5,4.86
		C1141.04,454.25,1141.27,456.79,1141.26,460.2 M1127.3,456.58c0-2.46-0.13-4.02-0.38-4.66c-0.25-0.64-0.8-0.96-1.63-0.96
		s-1.39,0.32-1.66,0.96c-0.27,0.64-0.41,2.2-0.41,4.66v21.7c0,2.27,0.14,3.75,0.41,4.44c0.28,0.69,0.82,1.03,1.63,1.03
		c0.81,0,1.38-0.32,1.64-0.94c0.27-0.63,0.4-1.98,0.4-4.06V456.58L1127.3,456.58z M1174.39,458.68h-12.38v-2.61
		c0-2.22-0.12-3.62-0.36-4.22c-0.24-0.59-0.85-0.88-1.81-0.88c-0.78,0-1.37,0.27-1.76,0.82c-0.39,0.55-0.59,1.36-0.59,2.45
		c0,1.47,0.1,2.56,0.29,3.24c0.2,0.69,0.78,1.44,1.76,2.26c0.98,0.82,2.99,2.02,6.03,3.59c4.06,2.08,6.72,4.04,7.99,5.87
		c1.27,1.83,1.9,4.5,1.9,8.01c0,3.91-0.49,6.87-1.45,8.86s-2.59,3.53-4.85,4.6c-2.27,1.08-5.01,1.61-8.21,1.61
		c-3.55,0-6.59-0.58-9.11-1.74c-2.53-1.16-4.26-2.73-5.2-4.71c-0.94-1.98-1.41-4.97-1.41-8.99v-2.32h12.38v3.04
		c0,2.59,0.15,4.27,0.46,5.04c0.31,0.77,0.93,1.16,1.85,1.16c0.99,0,1.68-0.26,2.08-0.78c0.39-0.52,0.59-1.61,0.59-3.28
		c0-2.29-0.25-3.74-0.76-4.31c-0.53-0.58-3.24-2.29-8.13-5.14c-4.1-2.42-6.6-4.6-7.5-6.58c-0.9-1.97-1.35-4.3-1.35-7.01
		c0-3.84,0.49-6.67,1.45-8.49c0.97-1.83,2.61-3.23,4.93-4.22c2.31-0.99,5.01-1.49,8.07-1.49c3.06,0,5.63,0.41,7.77,1.22
		c2.13,0.81,3.77,1.88,4.91,3.2c1.14,1.33,1.83,2.56,2.08,3.7c0.24,1.13,0.36,2.91,0.36,5.33v2.79L1174.39,458.68z M1193.4,443.31
		l-0.24,4.25c1.24-1.72,2.62-3,4.11-3.85c1.5-0.85,3.13-1.27,4.91-1.27c2.17,0,4.04,0.61,5.62,1.83c1.58,1.22,2.56,2.62,2.95,4.22
		c0.39,1.59,0.59,4.3,0.59,8.12v20.25c0,4.37-0.25,7.49-0.74,9.33c-0.49,1.85-1.51,3.32-3.04,4.42c-1.53,1.1-3.38,1.65-5.55,1.65
		c-1.73,0-3.33-0.42-4.8-1.27c-1.47-0.85-2.82-2.11-4.04-3.77v11.02h-13.97v-54.93L1193.4,443.31L1193.4,443.31z M1197.38,457.3
		c0-2.97-0.1-4.77-0.31-5.4c-0.21-0.63-0.78-0.94-1.73-0.94s-1.52,0.36-1.78,1.09c-0.27,0.72-0.4,2.48-0.4,5.25v19.93
		c0,2.9,0.14,4.71,0.41,5.44c0.28,0.72,0.88,1.09,1.8,1.09s1.46-0.33,1.68-0.99c0.22-0.66,0.33-2.28,0.33-4.83v-20.61L1197.38,457.3
		z M1247.59,468.2h-18.08v10.4c0,2.17,0.15,3.57,0.45,4.2c0.3,0.63,0.88,0.94,1.73,0.94c1.06,0,1.77-0.42,2.13-1.25
		c0.35-0.83,0.54-2.45,0.54-4.83v-6.34h13.24v3.55c0,2.97-0.18,5.25-0.54,6.84c-0.36,1.59-1.19,3.3-2.5,5.11
		c-1.31,1.81-2.98,3.17-5,4.07c-2.02,0.91-4.55,1.36-7.59,1.36s-5.56-0.45-7.82-1.34c-2.26-0.89-4.02-2.12-5.28-3.68
		c-1.26-1.55-2.13-3.27-2.61-5.14c-0.49-1.87-0.73-4.6-0.73-8.17v-14.02c0-4.2,0.54-7.51,1.63-9.95c1.08-2.43,2.86-4.29,5.33-5.58
		c2.47-1.29,5.3-1.94,8.5-1.94c3.92,0,7.15,0.78,9.7,2.34c2.55,1.56,4.33,3.62,5.36,6.2s1.54,6.19,1.54,10.85L1247.59,468.2
		L1247.59,468.2z M1233.58,460.38v-3.51c0-2.49-0.13-4.1-0.38-4.82c-0.25-0.72-0.77-1.09-1.55-1.09c-0.97,0-1.57,0.31-1.8,0.92
		c-0.23,0.62-0.35,2.28-0.35,4.98v3.51L1233.58,460.38L1233.58,460.38z M1266.13,443.31l-0.55,6.32c2.03-4.53,4.97-6.93,8.82-7.19
		v16.92c-2.56,0-4.44,0.36-5.64,1.09c-1.2,0.72-1.94,1.73-2.21,3.03c-0.28,1.29-0.41,4.27-0.41,8.93v18.99h-13.97v-48.08
		L1266.13,443.31L1266.13,443.31z M1291.87,440.38h-14.38v-7.65h14.38V440.38z M1291.87,491.39h-14.38v-48.08h14.38V491.39z
		 M1311.62,436.9v7.57h3.76v7.61h-3.76v25.73c0,3.16,0.15,4.93,0.46,5.29s1.61,0.55,3.89,0.55v7.75h-5.64
		c-3.18,0-5.45-0.14-6.81-0.42c-1.36-0.28-2.56-0.92-3.6-1.92c-1.04-1-1.68-2.15-1.94-3.44c-0.25-1.29-0.38-4.33-0.38-9.11v-24.42
		h-3.01v-7.61h3.01v-7.57L1311.62,436.9L1311.62,436.9z M1349.12,443.31l-3.99,34.78c-0.63,5.5-1.16,9.26-1.58,11.26
		c-0.43,2-1.13,3.66-2.13,4.97c-0.99,1.3-2.36,2.26-4.13,2.88c-1.76,0.62-4.58,0.92-8.45,0.92h-8.47v-7.68
		c2.17,0,3.57-0.12,4.19-0.35c0.63-0.23,0.94-0.74,0.94-1.54c0-0.38-0.29-2.06-0.86-5.04l-7.65-40.22h12.68l4.59,32.46l2.24-32.46
		h12.64V443.31z"/>
</g>
</svg>
